EMG
version=1
nRows=27
nColumns=17
inDegrees=no
endheader
time	_right_gast_med	_right_glut_max	_left_gast_med	_left_glut_max	_right_glut_med	_right_bic_fem	_right_rect_fem	_right_vast_lat	_right_vast_med	_right_tens_fasc_lat	_left_glut_med	_left_bic_fem	_left_rect_fem	_left_vast_lat	_left_vast_med	_left_tens_fasc_lat
      0.00000000	      0.17082046	      0.07593323	     -0.00550784	     -0.07846689	      0.02760072	     -0.01198499	      0.03338159	     -0.05379668	      0.30942139	     -0.05614285	      0.04308973	     -0.00272603	      0.02507211	     -0.06749814	      0.11898928	     -0.01375481
      0.01000000	      0.15871327	      0.00632308	     -0.00526589	     -0.03247230	      0.00940472	     -0.03081447	      0.03387432	     -0.04197983	      0.39214000	     -0.03816487	      0.03196838	     -0.02092915	      0.02883550	     -0.06222616	      0.11213078	     -0.00888630
      0.02000000	      0.01069012	     -0.04413470	      0.01806888	     -0.00274757	     -0.01350446	     -0.05669039	      0.03101660	     -0.02521921	      0.39875758	     -0.01464669	      0.01642521	     -0.03860329	      0.03204527	     -0.07707101	      0.09128939	      0.01302326
      0.03000000	     -0.21771546	     -0.03098239	      0.04383368	     -0.04048487	     -0.02287735	     -0.06100219	      0.01372559	     -0.00803918	      0.32916752	      0.00469826	      0.01547227	     -0.03262856	      0.02230450	     -0.08131943	      0.05141505	      0.04278677
      0.04000000	      0.16018943	      0.00109335	      0.03413641	     -0.08242947	     -0.01164296	     -0.02942926	      0.00078519	      0.01902508	      0.26414376	      0.02108430	      0.01881806	     -0.02461546	      0.01430058	     -0.05312119	     -0.02651371	      0.05776281
      0.05000000	      1.29715014	      0.02220738	      0.01145072	     -0.08723165	      0.00532621	      0.01441544	      0.02498164	      0.04552379	      0.21521862	      0.02435127	     -0.00082506	     -0.06040884	      0.01786172	     -0.02082291	     -0.11473220	      0.05502477
      0.06000000	      1.05127621	      0.02884017	      0.00164322	     -0.07690884	      0.00382499	      0.03897354	      0.06028234	      0.05299690	      0.18222807	      0.01592986	     -0.03138082	     -0.07981604	      0.02341467	     -0.00603567	     -0.13483560	      0.04193696
      0.07000000	     -0.87360585	      0.02571008	     -0.01046441	     -0.07835031	     -0.01815527	      0.04645152	      0.05296155	      0.05411525	      0.16054948	      0.01513494	     -0.03590157	     -0.01622635	      0.02413308	     -0.00125491	     -0.06140142	      0.03340526
      0.08000000	     -0.68144941	      0.01802127	     -0.00775264	     -0.06646727	     -0.03544400	      0.04422422	      0.01571656	      0.04908303	      0.11256801	      0.02069948	     -0.02114113	      0.01500038	      0.02015614	      0.00489159	      0.02816911	      0.03376391
      0.09000000	      1.34579980	      0.00631762	      0.00916128	     -0.00925959	     -0.02656578	      0.03072074	      0.00448975	      0.01314288	      0.01980851	      0.01250199	     -0.01286601	     -0.00345289	      0.01396209	      0.00955280	      0.05904839	      0.02795396
      0.10000000	      1.48571789	      0.00112516	      0.01507542	      0.05125073	      0.00147571	      0.01831441	      0.01445020	     -0.05329749	     -0.04721009	     -0.00742649	     -0.00350336	      0.01443034	      0.00829158	      0.02087380	      0.05184309	      0.01328223
      0.11000000	      0.72009152	      0.02238792	      0.04116588	      0.08133188	      0.02354486	      0.01495514	      0.00961482	     -0.11532954	     -0.02373073	     -0.01697489	      0.02013874	      0.05099307	      0.00391621	      0.04115318	      0.05958223	      0.00229512
      0.12000000	      1.00690520	      0.05117061	      0.06770130	      0.08963203	      0.02594613	      0.02362298	     -0.00703795	     -0.13171336	      0.03056717	     -0.00727891	      0.05070606	      0.07914225	     -0.00711106	      0.05258354	      0.08565488	      0.00103354
      0.13000000	      0.50012189	      0.02734243	      0.02829399	      0.08445511	      0.01568753	      0.03943799	     -0.00568125	     -0.09669232	      0.03030694	      0.00383913	      0.06221468	      0.10961667	     -0.02566755	      0.04625836	      0.08235610	      0.00341684
      0.14000000	     -1.49226534	     -0.04785342	     -0.01030899	      0.06856148	      0.00387039	      0.04366403	      0.01884405	     -0.04061077	     -0.00362376	      0.00778232	      0.03899162	      0.11199293	     -0.03088329	      0.03581437	      0.01286271	     -0.00037044
      0.15000000	     -2.44903135	     -0.11063394	     -0.01947700	      0.05484654	     -0.00170409	      0.03653925	      0.03310829	      0.00626209	     -0.01348387	      0.00710751	      0.00755485	      0.06236871	      0.00180084	      0.03138905	     -0.07728814	     -0.02863729
      0.16000000	     -1.52598727	     -0.14044216	     -0.04409716	      0.04869726	      0.00254760	      0.03010688	      0.01456354	      0.03038104	     -0.00418830	     -0.00724990	      0.00433888	     -0.00272702	      0.06082599	      0.01450492	     -0.10085515	     -0.07812408
      0.17000000	     -0.34562674	     -0.13199756	     -0.01056238	      0.03033803	      0.01574194	      0.01923328	     -0.01754457	      0.04103032	      0.00931770	     -0.02794247	      0.01507556	     -0.03103346	      0.08683048	     -0.00756793	     -0.02569665	     -0.07972190
      0.18000000	      0.16466856	     -0.03450275	      0.04663015	     -0.00930251	      0.01756122	      0.00330893	     -0.03373291	      0.05016327	      0.02854733	     -0.03771504	     -0.00177989	     -0.02321577	      0.04953768	      0.01214187	      0.08708534	      0.00017000
      0.19000000	      0.25827536	      0.10918877	      0.03193758	     -0.05249140	     -0.02513220	     -0.00861881	     -0.01561151	      0.04929900	      0.03922193	     -0.03345810	     -0.04267599	     -0.01555239	     -0.00284902	      0.05783365	      0.13432479	      0.05948745
      0.20000000	      0.24570271	      0.15363957	      0.00570319	     -0.08749773	     -0.09791312	     -0.01360231	      0.05210939	      0.03594236	      0.03550673	     -0.01330038	     -0.06419034	     -0.01983945	     -0.02847420	      0.05691763	      0.08570983	      0.02427294
      0.21000000	      0.21377006	      0.09884206	     -0.00114132	     -0.10451636	     -0.12189762	     -0.01524128	      0.12395056	      0.02713078	      0.02933696	      0.02191546	     -0.05948104	     -0.01754425	     -0.04233201	      0.00753772	      0.02338841	     -0.02029001
      0.22000000	      0.17838988	      0.07595837	     -0.01295655	     -0.05434166	     -0.06258423	     -0.01490702	      0.10214865	      0.02694337	      0.02537970	      0.05749695	     -0.04896101	      0.00616995	     -0.06792209	      0.00562247	      0.00785257	      0.01078855
      0.23000000	      0.14837293	      0.10456528	     -0.01199985	      0.06526893	      0.02223336	     -0.01085673	      0.00894285	      0.01977781	      0.02010991	      0.06735956	     -0.02166997	      0.02304489	     -0.06499393	      0.04232092	     -0.05838073	      0.05105980
      0.24000000	      0.13447905	      0.08106889	      0.01859635	      0.14434487	      0.06385548	     -0.00487928	     -0.04303795	      0.00924653	      0.01462819	      0.03720209	      0.00002510	     -0.00764745	      0.01189272	      0.01590843	     -0.23347755	      0.02045243
      0.25000000	      0.12860914	     -0.09262325	      0.07510954	      0.11968205	      0.07021551	     -0.00558429	     -0.04450156	      0.00656651	      0.01210127	     -0.00872542	      0.00562605	     -0.03330941	      0.07540157	     -0.04002905	     -0.25037780	     -0.02316607
      0.26000000	      0.11651749	     -0.30802909	      0.09169799	      0.03609824	      0.08459743	     -0.00976118	     -0.04006500	      0.00556143	      0.01225436	     -0.00792416	      0.04703337	     -0.02974726	      0.04973650	     -0.03615938	     -0.01604231	     -0.03714923
